%TF.GenerationSoftware,KiCad,Pcbnew,(6.0.7-1)-1*%
%TF.CreationDate,2022-11-19T17:24:07-05:00*%
%TF.ProjectId,BCDtoLCDLogic,42434474-6f4c-4434-944c-6f6769632e6b,rev?*%
%TF.SameCoordinates,Original*%
%TF.FileFunction,Soldermask,Bot*%
%TF.FilePolarity,Negative*%
%FSLAX46Y46*%
G04 Gerber Fmt 4.6, Leading zero omitted, Abs format (unit mm)*
G04 Created by KiCad (PCBNEW (6.0.7-1)-1) date 2022-11-19 17:24:07*
%MOMM*%
%LPD*%
G01*
G04 APERTURE LIST*
%ADD10C,1.600000*%
%ADD11O,1.600000X1.600000*%
%ADD12R,1.600000X1.600000*%
%ADD13R,1.524000X2.524000*%
%ADD14O,1.524000X2.524000*%
%ADD15R,1.800000X1.800000*%
%ADD16C,1.800000*%
%ADD17R,1.700000X1.700000*%
%ADD18O,1.700000X1.700000*%
G04 APERTURE END LIST*
D10*
%TO.C,R2*%
X156210000Y-104648000D03*
D11*
X163830000Y-104648000D03*
%TD*%
D12*
%TO.C,U2*%
X111262000Y-117851000D03*
D11*
X111262000Y-120391000D03*
X111262000Y-122931000D03*
X111262000Y-125471000D03*
X111262000Y-128011000D03*
X111262000Y-130551000D03*
X111262000Y-133091000D03*
X118882000Y-133091000D03*
X118882000Y-130551000D03*
X118882000Y-128011000D03*
X118882000Y-125471000D03*
X118882000Y-122931000D03*
X118882000Y-120391000D03*
X118882000Y-117851000D03*
%TD*%
D12*
%TO.C,U8*%
X122682000Y-117856000D03*
D11*
X122682000Y-120396000D03*
X122682000Y-122936000D03*
X122682000Y-125476000D03*
X122682000Y-128016000D03*
X122682000Y-130556000D03*
X122682000Y-133096000D03*
X130302000Y-133096000D03*
X130302000Y-130556000D03*
X130302000Y-128016000D03*
X130302000Y-125476000D03*
X130302000Y-122936000D03*
X130302000Y-120396000D03*
X130302000Y-117856000D03*
%TD*%
D10*
%TO.C,R8*%
X107442000Y-117602000D03*
D11*
X107442000Y-125222000D03*
%TD*%
D10*
%TO.C,R7*%
X156210000Y-121158000D03*
D11*
X163830000Y-121158000D03*
%TD*%
D10*
%TO.C,R5*%
X156210000Y-114554000D03*
D11*
X163830000Y-114554000D03*
%TD*%
D13*
%TO.C,U11*%
X169164000Y-118618000D03*
D14*
X171704000Y-118618000D03*
X174244000Y-118618000D03*
X176784000Y-118618000D03*
X179324000Y-118618000D03*
X179324000Y-103378000D03*
X176784000Y-103378000D03*
X174244000Y-103378000D03*
X171704000Y-103378000D03*
X169164000Y-103378000D03*
%TD*%
D10*
%TO.C,R6*%
X156210000Y-117856000D03*
D11*
X163830000Y-117856000D03*
%TD*%
D12*
%TO.C,U9*%
X163830000Y-133096000D03*
D11*
X166370000Y-133096000D03*
X168910000Y-133096000D03*
X171450000Y-133096000D03*
X173990000Y-133096000D03*
X176530000Y-133096000D03*
X179070000Y-133096000D03*
X179070000Y-125476000D03*
X176530000Y-125476000D03*
X173990000Y-125476000D03*
X171450000Y-125476000D03*
X168910000Y-125476000D03*
X166370000Y-125476000D03*
X163830000Y-125476000D03*
%TD*%
D12*
%TO.C,U1*%
X99832000Y-98293000D03*
D11*
X99832000Y-100833000D03*
X99832000Y-103373000D03*
X99832000Y-105913000D03*
X99832000Y-108453000D03*
X99832000Y-110993000D03*
X99832000Y-113533000D03*
X107452000Y-113533000D03*
X107452000Y-110993000D03*
X107452000Y-108453000D03*
X107452000Y-105913000D03*
X107452000Y-103373000D03*
X107452000Y-100833000D03*
X107452000Y-98293000D03*
%TD*%
D12*
%TO.C,U7*%
X145029000Y-133086000D03*
D11*
X147569000Y-133086000D03*
X150109000Y-133086000D03*
X152649000Y-133086000D03*
X155189000Y-133086000D03*
X157729000Y-133086000D03*
X160269000Y-133086000D03*
X160269000Y-125466000D03*
X157729000Y-125466000D03*
X155189000Y-125466000D03*
X152649000Y-125466000D03*
X150109000Y-125466000D03*
X147569000Y-125466000D03*
X145029000Y-125466000D03*
%TD*%
D12*
%TO.C,U3*%
X133868000Y-98293000D03*
D11*
X133868000Y-100833000D03*
X133868000Y-103373000D03*
X133868000Y-105913000D03*
X133868000Y-108453000D03*
X133868000Y-110993000D03*
X133868000Y-113533000D03*
X141488000Y-113533000D03*
X141488000Y-110993000D03*
X141488000Y-108453000D03*
X141488000Y-105913000D03*
X141488000Y-103373000D03*
X141488000Y-100833000D03*
X141488000Y-98293000D03*
%TD*%
D12*
%TO.C,U4*%
X122692000Y-98293000D03*
D11*
X122692000Y-100833000D03*
X122692000Y-103373000D03*
X122692000Y-105913000D03*
X122692000Y-108453000D03*
X122692000Y-110993000D03*
X122692000Y-113533000D03*
X130312000Y-113533000D03*
X130312000Y-110993000D03*
X130312000Y-108453000D03*
X130312000Y-105913000D03*
X130312000Y-103373000D03*
X130312000Y-100833000D03*
X130312000Y-98293000D03*
%TD*%
D15*
%TO.C,LED1*%
X107188000Y-130561000D03*
D16*
X107188000Y-128021000D03*
%TD*%
D10*
%TO.C,R4*%
X156210000Y-111252000D03*
D11*
X163830000Y-111252000D03*
%TD*%
D12*
%TO.C,U10*%
X145044000Y-98303000D03*
D11*
X145044000Y-100843000D03*
X145044000Y-103383000D03*
X145044000Y-105923000D03*
X145044000Y-108463000D03*
X145044000Y-111003000D03*
X145044000Y-113543000D03*
X145044000Y-116083000D03*
X145044000Y-118623000D03*
X145044000Y-121163000D03*
X152664000Y-121163000D03*
X152664000Y-118623000D03*
X152664000Y-116083000D03*
X152664000Y-113543000D03*
X152664000Y-111003000D03*
X152664000Y-108463000D03*
X152664000Y-105923000D03*
X152664000Y-103383000D03*
X152664000Y-100843000D03*
X152664000Y-98303000D03*
%TD*%
D12*
%TO.C,U5*%
X111262000Y-98293000D03*
D11*
X111262000Y-100833000D03*
X111262000Y-103373000D03*
X111262000Y-105913000D03*
X111262000Y-108453000D03*
X111262000Y-110993000D03*
X111262000Y-113533000D03*
X118882000Y-113533000D03*
X118882000Y-110993000D03*
X118882000Y-108453000D03*
X118882000Y-105913000D03*
X118882000Y-103373000D03*
X118882000Y-100833000D03*
X118882000Y-98293000D03*
%TD*%
D12*
%TO.C,U6*%
X133868000Y-117851000D03*
D11*
X133868000Y-120391000D03*
X133868000Y-122931000D03*
X133868000Y-125471000D03*
X133868000Y-128011000D03*
X133868000Y-130551000D03*
X133868000Y-133091000D03*
X141488000Y-133091000D03*
X141488000Y-130551000D03*
X141488000Y-128011000D03*
X141488000Y-125471000D03*
X141488000Y-122931000D03*
X141488000Y-120391000D03*
X141488000Y-117851000D03*
%TD*%
D10*
%TO.C,C1*%
X103378000Y-133350000D03*
X108378000Y-133350000D03*
%TD*%
%TO.C,R1*%
X156210000Y-101346000D03*
D11*
X163830000Y-101346000D03*
%TD*%
D10*
%TO.C,R3*%
X156210000Y-107950000D03*
D11*
X163830000Y-107950000D03*
%TD*%
D17*
%TO.C,PH1*%
X99822000Y-120396000D03*
D18*
X99822000Y-122936000D03*
X99822000Y-125476000D03*
X99822000Y-128016000D03*
X99822000Y-130556000D03*
X99822000Y-133096000D03*
%TD*%
M02*
