%TF.GenerationSoftware,KiCad,Pcbnew,(6.0.7-1)-1*%
%TF.CreationDate,2022-11-19T17:24:07-05:00*%
%TF.ProjectId,BCDtoLCDLogic,42434474-6f4c-4434-944c-6f6769632e6b,rev?*%
%TF.SameCoordinates,Original*%
%TF.FileFunction,Legend,Top*%
%TF.FilePolarity,Positive*%
%FSLAX46Y46*%
G04 Gerber Fmt 4.6, Leading zero omitted, Abs format (unit mm)*
G04 Created by KiCad (PCBNEW (6.0.7-1)-1) date 2022-11-19 17:24:07*
%MOMM*%
%LPD*%
G01*
G04 APERTURE LIST*
%ADD10C,0.150000*%
%ADD11C,0.175000*%
%ADD12C,0.250000*%
%ADD13C,0.120000*%
G04 APERTURE END LIST*
D10*
X97536000Y-135128000D02*
X97536000Y-96012000D01*
X181102000Y-135128000D02*
X97536000Y-135128000D01*
X181102000Y-96012000D02*
X181102000Y-135128000D01*
X97790000Y-96012000D02*
X181102000Y-96012000D01*
D11*
X101208000Y-130606000D02*
X101741333Y-130606000D01*
X101474666Y-130872666D02*
X101474666Y-130339333D01*
X102408000Y-130172666D02*
X102074666Y-130172666D01*
X102041333Y-130506000D01*
X102074666Y-130472666D01*
X102141333Y-130439333D01*
X102308000Y-130439333D01*
X102374666Y-130472666D01*
X102408000Y-130506000D01*
X102441333Y-130572666D01*
X102441333Y-130739333D01*
X102408000Y-130806000D01*
X102374666Y-130839333D01*
X102308000Y-130872666D01*
X102141333Y-130872666D01*
X102074666Y-130839333D01*
X102041333Y-130806000D01*
X102641333Y-130172666D02*
X102874666Y-130872666D01*
X103108000Y-130172666D01*
D12*
X102433428Y-122864571D02*
X102576285Y-122912190D01*
X102623904Y-122959809D01*
X102671523Y-123055047D01*
X102671523Y-123197904D01*
X102623904Y-123293142D01*
X102576285Y-123340761D01*
X102481047Y-123388380D01*
X102100095Y-123388380D01*
X102100095Y-122388380D01*
X102433428Y-122388380D01*
X102528666Y-122436000D01*
X102576285Y-122483619D01*
X102623904Y-122578857D01*
X102623904Y-122674095D01*
X102576285Y-122769333D01*
X102528666Y-122816952D01*
X102433428Y-122864571D01*
X102100095Y-122864571D01*
X102100095Y-128468380D02*
X102100095Y-127468380D01*
X102338190Y-127468380D01*
X102481047Y-127516000D01*
X102576285Y-127611238D01*
X102623904Y-127706476D01*
X102671523Y-127896952D01*
X102671523Y-128039809D01*
X102623904Y-128230285D01*
X102576285Y-128325523D01*
X102481047Y-128420761D01*
X102338190Y-128468380D01*
X102100095Y-128468380D01*
X102123904Y-120562666D02*
X102600095Y-120562666D01*
X102028666Y-120848380D02*
X102362000Y-119848380D01*
X102695333Y-120848380D01*
X102671523Y-125833142D02*
X102623904Y-125880761D01*
X102481047Y-125928380D01*
X102385809Y-125928380D01*
X102242952Y-125880761D01*
X102147714Y-125785523D01*
X102100095Y-125690285D01*
X102052476Y-125499809D01*
X102052476Y-125356952D01*
X102100095Y-125166476D01*
X102147714Y-125071238D01*
X102242952Y-124976000D01*
X102385809Y-124928380D01*
X102481047Y-124928380D01*
X102623904Y-124976000D01*
X102671523Y-125023619D01*
D11*
X102037333Y-132746000D02*
X101970666Y-132712666D01*
X101870666Y-132712666D01*
X101770666Y-132746000D01*
X101704000Y-132812666D01*
X101670666Y-132879333D01*
X101637333Y-133012666D01*
X101637333Y-133112666D01*
X101670666Y-133246000D01*
X101704000Y-133312666D01*
X101770666Y-133379333D01*
X101870666Y-133412666D01*
X101937333Y-133412666D01*
X102037333Y-133379333D01*
X102070666Y-133346000D01*
X102070666Y-133112666D01*
X101937333Y-133112666D01*
D10*
%TO.C,R2*%
X165949333Y-105100380D02*
X165616000Y-104624190D01*
X165377904Y-105100380D02*
X165377904Y-104100380D01*
X165758857Y-104100380D01*
X165854095Y-104148000D01*
X165901714Y-104195619D01*
X165949333Y-104290857D01*
X165949333Y-104433714D01*
X165901714Y-104528952D01*
X165854095Y-104576571D01*
X165758857Y-104624190D01*
X165377904Y-104624190D01*
X166330285Y-104195619D02*
X166377904Y-104148000D01*
X166473142Y-104100380D01*
X166711238Y-104100380D01*
X166806476Y-104148000D01*
X166854095Y-104195619D01*
X166901714Y-104290857D01*
X166901714Y-104386095D01*
X166854095Y-104528952D01*
X166282666Y-105100380D01*
X166901714Y-105100380D01*
%TO.C,U2*%
X114046095Y-111720380D02*
X114046095Y-112529904D01*
X114093714Y-112625142D01*
X114141333Y-112672761D01*
X114236571Y-112720380D01*
X114427047Y-112720380D01*
X114522285Y-112672761D01*
X114569904Y-112625142D01*
X114617523Y-112529904D01*
X114617523Y-111720380D01*
X115046095Y-111815619D02*
X115093714Y-111768000D01*
X115188952Y-111720380D01*
X115427047Y-111720380D01*
X115522285Y-111768000D01*
X115569904Y-111815619D01*
X115617523Y-111910857D01*
X115617523Y-112006095D01*
X115569904Y-112148952D01*
X114998476Y-112720380D01*
X115617523Y-112720380D01*
%TO.C,U8*%
X125730095Y-119848380D02*
X125730095Y-120657904D01*
X125777714Y-120753142D01*
X125825333Y-120800761D01*
X125920571Y-120848380D01*
X126111047Y-120848380D01*
X126206285Y-120800761D01*
X126253904Y-120753142D01*
X126301523Y-120657904D01*
X126301523Y-119848380D01*
X126920571Y-120276952D02*
X126825333Y-120229333D01*
X126777714Y-120181714D01*
X126730095Y-120086476D01*
X126730095Y-120038857D01*
X126777714Y-119943619D01*
X126825333Y-119896000D01*
X126920571Y-119848380D01*
X127111047Y-119848380D01*
X127206285Y-119896000D01*
X127253904Y-119943619D01*
X127301523Y-120038857D01*
X127301523Y-120086476D01*
X127253904Y-120181714D01*
X127206285Y-120229333D01*
X127111047Y-120276952D01*
X126920571Y-120276952D01*
X126825333Y-120324571D01*
X126777714Y-120372190D01*
X126730095Y-120467428D01*
X126730095Y-120657904D01*
X126777714Y-120753142D01*
X126825333Y-120800761D01*
X126920571Y-120848380D01*
X127111047Y-120848380D01*
X127206285Y-120800761D01*
X127253904Y-120753142D01*
X127301523Y-120657904D01*
X127301523Y-120467428D01*
X127253904Y-120372190D01*
X127206285Y-120324571D01*
X127111047Y-120276952D01*
%TO.C,R8*%
X107894380Y-121578666D02*
X107418190Y-121912000D01*
X107894380Y-122150095D02*
X106894380Y-122150095D01*
X106894380Y-121769142D01*
X106942000Y-121673904D01*
X106989619Y-121626285D01*
X107084857Y-121578666D01*
X107227714Y-121578666D01*
X107322952Y-121626285D01*
X107370571Y-121673904D01*
X107418190Y-121769142D01*
X107418190Y-122150095D01*
X107322952Y-121007238D02*
X107275333Y-121102476D01*
X107227714Y-121150095D01*
X107132476Y-121197714D01*
X107084857Y-121197714D01*
X106989619Y-121150095D01*
X106942000Y-121102476D01*
X106894380Y-121007238D01*
X106894380Y-120816761D01*
X106942000Y-120721523D01*
X106989619Y-120673904D01*
X107084857Y-120626285D01*
X107132476Y-120626285D01*
X107227714Y-120673904D01*
X107275333Y-120721523D01*
X107322952Y-120816761D01*
X107322952Y-121007238D01*
X107370571Y-121102476D01*
X107418190Y-121150095D01*
X107513428Y-121197714D01*
X107703904Y-121197714D01*
X107799142Y-121150095D01*
X107846761Y-121102476D01*
X107894380Y-121007238D01*
X107894380Y-120816761D01*
X107846761Y-120721523D01*
X107799142Y-120673904D01*
X107703904Y-120626285D01*
X107513428Y-120626285D01*
X107418190Y-120673904D01*
X107370571Y-120721523D01*
X107322952Y-120816761D01*
%TO.C,R7*%
X165949333Y-121610380D02*
X165616000Y-121134190D01*
X165377904Y-121610380D02*
X165377904Y-120610380D01*
X165758857Y-120610380D01*
X165854095Y-120658000D01*
X165901714Y-120705619D01*
X165949333Y-120800857D01*
X165949333Y-120943714D01*
X165901714Y-121038952D01*
X165854095Y-121086571D01*
X165758857Y-121134190D01*
X165377904Y-121134190D01*
X166282666Y-120610380D02*
X166949333Y-120610380D01*
X166520761Y-121610380D01*
%TO.C,R5*%
X165949333Y-115006380D02*
X165616000Y-114530190D01*
X165377904Y-115006380D02*
X165377904Y-114006380D01*
X165758857Y-114006380D01*
X165854095Y-114054000D01*
X165901714Y-114101619D01*
X165949333Y-114196857D01*
X165949333Y-114339714D01*
X165901714Y-114434952D01*
X165854095Y-114482571D01*
X165758857Y-114530190D01*
X165377904Y-114530190D01*
X166854095Y-114006380D02*
X166377904Y-114006380D01*
X166330285Y-114482571D01*
X166377904Y-114434952D01*
X166473142Y-114387333D01*
X166711238Y-114387333D01*
X166806476Y-114434952D01*
X166854095Y-114482571D01*
X166901714Y-114577809D01*
X166901714Y-114815904D01*
X166854095Y-114911142D01*
X166806476Y-114958761D01*
X166711238Y-115006380D01*
X166473142Y-115006380D01*
X166377904Y-114958761D01*
X166330285Y-114911142D01*
%TO.C,U11*%
X168362380Y-110966095D02*
X169171904Y-110966095D01*
X169267142Y-110918476D01*
X169314761Y-110870857D01*
X169362380Y-110775619D01*
X169362380Y-110585142D01*
X169314761Y-110489904D01*
X169267142Y-110442285D01*
X169171904Y-110394666D01*
X168362380Y-110394666D01*
X169362380Y-109394666D02*
X169362380Y-109966095D01*
X169362380Y-109680380D02*
X168362380Y-109680380D01*
X168505238Y-109775619D01*
X168600476Y-109870857D01*
X168648095Y-109966095D01*
X169362380Y-108442285D02*
X169362380Y-109013714D01*
X169362380Y-108728000D02*
X168362380Y-108728000D01*
X168505238Y-108823238D01*
X168600476Y-108918476D01*
X168648095Y-109013714D01*
%TO.C,R6*%
X165949333Y-118308380D02*
X165616000Y-117832190D01*
X165377904Y-118308380D02*
X165377904Y-117308380D01*
X165758857Y-117308380D01*
X165854095Y-117356000D01*
X165901714Y-117403619D01*
X165949333Y-117498857D01*
X165949333Y-117641714D01*
X165901714Y-117736952D01*
X165854095Y-117784571D01*
X165758857Y-117832190D01*
X165377904Y-117832190D01*
X166806476Y-117308380D02*
X166616000Y-117308380D01*
X166520761Y-117356000D01*
X166473142Y-117403619D01*
X166377904Y-117546476D01*
X166330285Y-117736952D01*
X166330285Y-118117904D01*
X166377904Y-118213142D01*
X166425523Y-118260761D01*
X166520761Y-118308380D01*
X166711238Y-118308380D01*
X166806476Y-118260761D01*
X166854095Y-118213142D01*
X166901714Y-118117904D01*
X166901714Y-117879809D01*
X166854095Y-117784571D01*
X166806476Y-117736952D01*
X166711238Y-117689333D01*
X166520761Y-117689333D01*
X166425523Y-117736952D01*
X166377904Y-117784571D01*
X166330285Y-117879809D01*
%TO.C,U9*%
X167092380Y-129793904D02*
X167901904Y-129793904D01*
X167997142Y-129746285D01*
X168044761Y-129698666D01*
X168092380Y-129603428D01*
X168092380Y-129412952D01*
X168044761Y-129317714D01*
X167997142Y-129270095D01*
X167901904Y-129222476D01*
X167092380Y-129222476D01*
X168092380Y-128698666D02*
X168092380Y-128508190D01*
X168044761Y-128412952D01*
X167997142Y-128365333D01*
X167854285Y-128270095D01*
X167663809Y-128222476D01*
X167282857Y-128222476D01*
X167187619Y-128270095D01*
X167140000Y-128317714D01*
X167092380Y-128412952D01*
X167092380Y-128603428D01*
X167140000Y-128698666D01*
X167187619Y-128746285D01*
X167282857Y-128793904D01*
X167520952Y-128793904D01*
X167616190Y-128746285D01*
X167663809Y-128698666D01*
X167711428Y-128603428D01*
X167711428Y-128412952D01*
X167663809Y-128317714D01*
X167616190Y-128270095D01*
X167520952Y-128222476D01*
%TO.C,U1*%
X102880095Y-100798380D02*
X102880095Y-101607904D01*
X102927714Y-101703142D01*
X102975333Y-101750761D01*
X103070571Y-101798380D01*
X103261047Y-101798380D01*
X103356285Y-101750761D01*
X103403904Y-101703142D01*
X103451523Y-101607904D01*
X103451523Y-100798380D01*
X104451523Y-101798380D02*
X103880095Y-101798380D01*
X104165809Y-101798380D02*
X104165809Y-100798380D01*
X104070571Y-100941238D01*
X103975333Y-101036476D01*
X103880095Y-101084095D01*
%TO.C,U7*%
X149820380Y-129539904D02*
X150629904Y-129539904D01*
X150725142Y-129492285D01*
X150772761Y-129444666D01*
X150820380Y-129349428D01*
X150820380Y-129158952D01*
X150772761Y-129063714D01*
X150725142Y-129016095D01*
X150629904Y-128968476D01*
X149820380Y-128968476D01*
X149820380Y-128587523D02*
X149820380Y-127920857D01*
X150820380Y-128349428D01*
%TO.C,U3*%
X136916095Y-101306380D02*
X136916095Y-102115904D01*
X136963714Y-102211142D01*
X137011333Y-102258761D01*
X137106571Y-102306380D01*
X137297047Y-102306380D01*
X137392285Y-102258761D01*
X137439904Y-102211142D01*
X137487523Y-102115904D01*
X137487523Y-101306380D01*
X137868476Y-101306380D02*
X138487523Y-101306380D01*
X138154190Y-101687333D01*
X138297047Y-101687333D01*
X138392285Y-101734952D01*
X138439904Y-101782571D01*
X138487523Y-101877809D01*
X138487523Y-102115904D01*
X138439904Y-102211142D01*
X138392285Y-102258761D01*
X138297047Y-102306380D01*
X138011333Y-102306380D01*
X137916095Y-102258761D01*
X137868476Y-102211142D01*
%TO.C,U4*%
X125740095Y-101306380D02*
X125740095Y-102115904D01*
X125787714Y-102211142D01*
X125835333Y-102258761D01*
X125930571Y-102306380D01*
X126121047Y-102306380D01*
X126216285Y-102258761D01*
X126263904Y-102211142D01*
X126311523Y-102115904D01*
X126311523Y-101306380D01*
X127216285Y-101639714D02*
X127216285Y-102306380D01*
X126978190Y-101258761D02*
X126740095Y-101973047D01*
X127359142Y-101973047D01*
%TO.C,LED1*%
X104680380Y-130410047D02*
X104680380Y-130886238D01*
X103680380Y-130886238D01*
X104156571Y-130076714D02*
X104156571Y-129743380D01*
X104680380Y-129600523D02*
X104680380Y-130076714D01*
X103680380Y-130076714D01*
X103680380Y-129600523D01*
X104680380Y-129171952D02*
X103680380Y-129171952D01*
X103680380Y-128933857D01*
X103728000Y-128791000D01*
X103823238Y-128695761D01*
X103918476Y-128648142D01*
X104108952Y-128600523D01*
X104251809Y-128600523D01*
X104442285Y-128648142D01*
X104537523Y-128695761D01*
X104632761Y-128791000D01*
X104680380Y-128933857D01*
X104680380Y-129171952D01*
X104680380Y-127648142D02*
X104680380Y-128219571D01*
X104680380Y-127933857D02*
X103680380Y-127933857D01*
X103823238Y-128029095D01*
X103918476Y-128124333D01*
X103966095Y-128219571D01*
%TO.C,R4*%
X165949333Y-111704380D02*
X165616000Y-111228190D01*
X165377904Y-111704380D02*
X165377904Y-110704380D01*
X165758857Y-110704380D01*
X165854095Y-110752000D01*
X165901714Y-110799619D01*
X165949333Y-110894857D01*
X165949333Y-111037714D01*
X165901714Y-111132952D01*
X165854095Y-111180571D01*
X165758857Y-111228190D01*
X165377904Y-111228190D01*
X166806476Y-111037714D02*
X166806476Y-111704380D01*
X166568380Y-110656761D02*
X166330285Y-111371047D01*
X166949333Y-111371047D01*
%TO.C,U10*%
X147615904Y-101052380D02*
X147615904Y-101861904D01*
X147663523Y-101957142D01*
X147711142Y-102004761D01*
X147806380Y-102052380D01*
X147996857Y-102052380D01*
X148092095Y-102004761D01*
X148139714Y-101957142D01*
X148187333Y-101861904D01*
X148187333Y-101052380D01*
X149187333Y-102052380D02*
X148615904Y-102052380D01*
X148901619Y-102052380D02*
X148901619Y-101052380D01*
X148806380Y-101195238D01*
X148711142Y-101290476D01*
X148615904Y-101338095D01*
X149806380Y-101052380D02*
X149901619Y-101052380D01*
X149996857Y-101100000D01*
X150044476Y-101147619D01*
X150092095Y-101242857D01*
X150139714Y-101433333D01*
X150139714Y-101671428D01*
X150092095Y-101861904D01*
X150044476Y-101957142D01*
X149996857Y-102004761D01*
X149901619Y-102052380D01*
X149806380Y-102052380D01*
X149711142Y-102004761D01*
X149663523Y-101957142D01*
X149615904Y-101861904D01*
X149568285Y-101671428D01*
X149568285Y-101433333D01*
X149615904Y-101242857D01*
X149663523Y-101147619D01*
X149711142Y-101100000D01*
X149806380Y-101052380D01*
%TO.C,U5*%
X114310095Y-101052380D02*
X114310095Y-101861904D01*
X114357714Y-101957142D01*
X114405333Y-102004761D01*
X114500571Y-102052380D01*
X114691047Y-102052380D01*
X114786285Y-102004761D01*
X114833904Y-101957142D01*
X114881523Y-101861904D01*
X114881523Y-101052380D01*
X115833904Y-101052380D02*
X115357714Y-101052380D01*
X115310095Y-101528571D01*
X115357714Y-101480952D01*
X115452952Y-101433333D01*
X115691047Y-101433333D01*
X115786285Y-101480952D01*
X115833904Y-101528571D01*
X115881523Y-101623809D01*
X115881523Y-101861904D01*
X115833904Y-101957142D01*
X115786285Y-102004761D01*
X115691047Y-102052380D01*
X115452952Y-102052380D01*
X115357714Y-102004761D01*
X115310095Y-101957142D01*
%TO.C,U6*%
X136916095Y-120610380D02*
X136916095Y-121419904D01*
X136963714Y-121515142D01*
X137011333Y-121562761D01*
X137106571Y-121610380D01*
X137297047Y-121610380D01*
X137392285Y-121562761D01*
X137439904Y-121515142D01*
X137487523Y-121419904D01*
X137487523Y-120610380D01*
X138392285Y-120610380D02*
X138201809Y-120610380D01*
X138106571Y-120658000D01*
X138058952Y-120705619D01*
X137963714Y-120848476D01*
X137916095Y-121038952D01*
X137916095Y-121419904D01*
X137963714Y-121515142D01*
X138011333Y-121562761D01*
X138106571Y-121610380D01*
X138297047Y-121610380D01*
X138392285Y-121562761D01*
X138439904Y-121515142D01*
X138487523Y-121419904D01*
X138487523Y-121181809D01*
X138439904Y-121086571D01*
X138392285Y-121038952D01*
X138297047Y-120991333D01*
X138106571Y-120991333D01*
X138011333Y-121038952D01*
X137963714Y-121086571D01*
X137916095Y-121181809D01*
%TO.C,C1*%
X105711333Y-133707142D02*
X105663714Y-133754761D01*
X105520857Y-133802380D01*
X105425619Y-133802380D01*
X105282761Y-133754761D01*
X105187523Y-133659523D01*
X105139904Y-133564285D01*
X105092285Y-133373809D01*
X105092285Y-133230952D01*
X105139904Y-133040476D01*
X105187523Y-132945238D01*
X105282761Y-132850000D01*
X105425619Y-132802380D01*
X105520857Y-132802380D01*
X105663714Y-132850000D01*
X105711333Y-132897619D01*
X106663714Y-133802380D02*
X106092285Y-133802380D01*
X106378000Y-133802380D02*
X106378000Y-132802380D01*
X106282761Y-132945238D01*
X106187523Y-133040476D01*
X106092285Y-133088095D01*
%TO.C,R1*%
X165949333Y-101798380D02*
X165616000Y-101322190D01*
X165377904Y-101798380D02*
X165377904Y-100798380D01*
X165758857Y-100798380D01*
X165854095Y-100846000D01*
X165901714Y-100893619D01*
X165949333Y-100988857D01*
X165949333Y-101131714D01*
X165901714Y-101226952D01*
X165854095Y-101274571D01*
X165758857Y-101322190D01*
X165377904Y-101322190D01*
X166901714Y-101798380D02*
X166330285Y-101798380D01*
X166616000Y-101798380D02*
X166616000Y-100798380D01*
X166520761Y-100941238D01*
X166425523Y-101036476D01*
X166330285Y-101084095D01*
%TO.C,R3*%
X165949333Y-108148380D02*
X165616000Y-107672190D01*
X165377904Y-108148380D02*
X165377904Y-107148380D01*
X165758857Y-107148380D01*
X165854095Y-107196000D01*
X165901714Y-107243619D01*
X165949333Y-107338857D01*
X165949333Y-107481714D01*
X165901714Y-107576952D01*
X165854095Y-107624571D01*
X165758857Y-107672190D01*
X165377904Y-107672190D01*
X166282666Y-107148380D02*
X166901714Y-107148380D01*
X166568380Y-107529333D01*
X166711238Y-107529333D01*
X166806476Y-107576952D01*
X166854095Y-107624571D01*
X166901714Y-107719809D01*
X166901714Y-107957904D01*
X166854095Y-108053142D01*
X166806476Y-108100761D01*
X166711238Y-108148380D01*
X166425523Y-108148380D01*
X166330285Y-108100761D01*
X166282666Y-108053142D01*
D13*
%TO.C,R2*%
X156750000Y-103608000D02*
X156750000Y-103278000D01*
X156750000Y-105688000D02*
X156750000Y-106018000D01*
X156750000Y-106018000D02*
X163290000Y-106018000D01*
X163290000Y-103278000D02*
X163290000Y-103608000D01*
X156750000Y-103278000D02*
X163290000Y-103278000D01*
X163290000Y-106018000D02*
X163290000Y-105688000D01*
%TO.C,U2*%
X109932000Y-134481000D02*
X120212000Y-134481000D01*
X117722000Y-134421000D02*
X117722000Y-116521000D01*
X112422000Y-116521000D02*
X112422000Y-134421000D01*
X117722000Y-116521000D02*
X116072000Y-116521000D01*
X112422000Y-134421000D02*
X117722000Y-134421000D01*
X120212000Y-116461000D02*
X109932000Y-116461000D01*
X109932000Y-116461000D02*
X109932000Y-134481000D01*
X120212000Y-134481000D02*
X120212000Y-116461000D01*
X114072000Y-116521000D02*
X112422000Y-116521000D01*
X114072000Y-116521000D02*
G75*
G03*
X116072000Y-116521000I1000000J0D01*
G01*
%TO.C,U8*%
X123842000Y-116526000D02*
X123842000Y-134426000D01*
X125492000Y-116526000D02*
X123842000Y-116526000D01*
X123842000Y-134426000D02*
X129142000Y-134426000D01*
X121352000Y-134486000D02*
X131632000Y-134486000D01*
X121352000Y-116466000D02*
X121352000Y-134486000D01*
X131632000Y-116466000D02*
X121352000Y-116466000D01*
X131632000Y-134486000D02*
X131632000Y-116466000D01*
X129142000Y-116526000D02*
X127492000Y-116526000D01*
X129142000Y-134426000D02*
X129142000Y-116526000D01*
X125492000Y-116526000D02*
G75*
G03*
X127492000Y-116526000I1000000J0D01*
G01*
%TO.C,R8*%
X106402000Y-118142000D02*
X106072000Y-118142000D01*
X108482000Y-118142000D02*
X108812000Y-118142000D01*
X106072000Y-124682000D02*
X106402000Y-124682000D01*
X106072000Y-118142000D02*
X106072000Y-124682000D01*
X108812000Y-118142000D02*
X108812000Y-124682000D01*
X108812000Y-124682000D02*
X108482000Y-124682000D01*
%TO.C,R7*%
X156750000Y-122528000D02*
X163290000Y-122528000D01*
X156750000Y-120118000D02*
X156750000Y-119788000D01*
X156750000Y-119788000D02*
X163290000Y-119788000D01*
X156750000Y-122198000D02*
X156750000Y-122528000D01*
X163290000Y-119788000D02*
X163290000Y-120118000D01*
X163290000Y-122528000D02*
X163290000Y-122198000D01*
%TO.C,R5*%
X163290000Y-115924000D02*
X163290000Y-115594000D01*
X156750000Y-113184000D02*
X163290000Y-113184000D01*
X156750000Y-113514000D02*
X156750000Y-113184000D01*
X156750000Y-115594000D02*
X156750000Y-115924000D01*
X156750000Y-115924000D02*
X163290000Y-115924000D01*
X163290000Y-113184000D02*
X163290000Y-113514000D01*
%TO.C,U11*%
X167834000Y-116713000D02*
X167834000Y-105283000D01*
X171244000Y-105998000D02*
X170244000Y-110998000D01*
X180654000Y-116713000D02*
X180654000Y-105283000D01*
X169244000Y-115998000D02*
X176244000Y-115998000D01*
X168944000Y-120633000D02*
X180544000Y-120633000D01*
X176244000Y-115998000D02*
X177244000Y-110998000D01*
X171244000Y-105998000D02*
X178244000Y-105998000D01*
X177244000Y-110998000D02*
X170244000Y-110998000D01*
X178244000Y-105998000D02*
X177244000Y-110998000D01*
X180544000Y-101363000D02*
X167944000Y-101363000D01*
X170244000Y-110998000D02*
X169244000Y-115998000D01*
X178691214Y-115998000D02*
G75*
G03*
X178691214Y-115998000I-447214J0D01*
G01*
%TO.C,R6*%
X156750000Y-118896000D02*
X156750000Y-119226000D01*
X163290000Y-116486000D02*
X163290000Y-116816000D01*
X156750000Y-119226000D02*
X163290000Y-119226000D01*
X156750000Y-116486000D02*
X163290000Y-116486000D01*
X156750000Y-116816000D02*
X156750000Y-116486000D01*
X163290000Y-119226000D02*
X163290000Y-118896000D01*
%TO.C,U9*%
X180460000Y-124146000D02*
X162440000Y-124146000D01*
X162500000Y-131936000D02*
X180400000Y-131936000D01*
X162500000Y-126636000D02*
X162500000Y-128286000D01*
X180400000Y-131936000D02*
X180400000Y-126636000D01*
X180400000Y-126636000D02*
X162500000Y-126636000D01*
X162440000Y-134426000D02*
X180460000Y-134426000D01*
X162440000Y-124146000D02*
X162440000Y-134426000D01*
X180460000Y-134426000D02*
X180460000Y-124146000D01*
X162500000Y-130286000D02*
X162500000Y-131936000D01*
X162500000Y-130286000D02*
G75*
G03*
X162500000Y-128286000I0J1000000D01*
G01*
%TO.C,U1*%
X108782000Y-96903000D02*
X98502000Y-96903000D01*
X100992000Y-96963000D02*
X100992000Y-114863000D01*
X98502000Y-114923000D02*
X108782000Y-114923000D01*
X100992000Y-114863000D02*
X106292000Y-114863000D01*
X102642000Y-96963000D02*
X100992000Y-96963000D01*
X106292000Y-96963000D02*
X104642000Y-96963000D01*
X108782000Y-114923000D02*
X108782000Y-96903000D01*
X106292000Y-114863000D02*
X106292000Y-96963000D01*
X98502000Y-96903000D02*
X98502000Y-114923000D01*
X102642000Y-96963000D02*
G75*
G03*
X104642000Y-96963000I1000000J0D01*
G01*
%TO.C,U7*%
X161599000Y-126626000D02*
X143699000Y-126626000D01*
X143699000Y-130276000D02*
X143699000Y-131926000D01*
X143699000Y-131926000D02*
X161599000Y-131926000D01*
X161599000Y-131926000D02*
X161599000Y-126626000D01*
X143699000Y-126626000D02*
X143699000Y-128276000D01*
X143639000Y-134416000D02*
X161659000Y-134416000D01*
X143639000Y-124136000D02*
X143639000Y-134416000D01*
X161659000Y-124136000D02*
X143639000Y-124136000D01*
X161659000Y-134416000D02*
X161659000Y-124136000D01*
X143699000Y-130276000D02*
G75*
G03*
X143699000Y-128276000I0J1000000D01*
G01*
%TO.C,U3*%
X135028000Y-96963000D02*
X135028000Y-114863000D01*
X140328000Y-96963000D02*
X138678000Y-96963000D01*
X140328000Y-114863000D02*
X140328000Y-96963000D01*
X142818000Y-114923000D02*
X142818000Y-96903000D01*
X132538000Y-114923000D02*
X142818000Y-114923000D01*
X135028000Y-114863000D02*
X140328000Y-114863000D01*
X132538000Y-96903000D02*
X132538000Y-114923000D01*
X136678000Y-96963000D02*
X135028000Y-96963000D01*
X142818000Y-96903000D02*
X132538000Y-96903000D01*
X136678000Y-96963000D02*
G75*
G03*
X138678000Y-96963000I1000000J0D01*
G01*
%TO.C,U4*%
X131642000Y-114923000D02*
X131642000Y-96903000D01*
X123852000Y-96963000D02*
X123852000Y-114863000D01*
X125502000Y-96963000D02*
X123852000Y-96963000D01*
X121362000Y-96903000D02*
X121362000Y-114923000D01*
X123852000Y-114863000D02*
X129152000Y-114863000D01*
X121362000Y-114923000D02*
X131642000Y-114923000D01*
X129152000Y-114863000D02*
X129152000Y-96963000D01*
X131642000Y-96903000D02*
X121362000Y-96903000D01*
X129152000Y-96963000D02*
X127502000Y-96963000D01*
X125502000Y-96963000D02*
G75*
G03*
X127502000Y-96963000I1000000J0D01*
G01*
%TO.C,LED1*%
X105952000Y-130851000D02*
X106108000Y-130851000D01*
X108268000Y-130851000D02*
X108424000Y-130851000D01*
X108268000Y-130331961D02*
G75*
G03*
X108267837Y-128249870I-1080000J1040961D01*
G01*
X106109392Y-127618665D02*
G75*
G03*
X105952484Y-130851000I1078608J-1672335D01*
G01*
X108423516Y-130851000D02*
G75*
G03*
X108266608Y-127618665I-1235516J1560000D01*
G01*
X106108163Y-128249870D02*
G75*
G03*
X106108000Y-130331961I1079837J-1041130D01*
G01*
%TO.C,R4*%
X156750000Y-109882000D02*
X163290000Y-109882000D01*
X163290000Y-112622000D02*
X163290000Y-112292000D01*
X156750000Y-112292000D02*
X156750000Y-112622000D01*
X163290000Y-109882000D02*
X163290000Y-110212000D01*
X156750000Y-112622000D02*
X163290000Y-112622000D01*
X156750000Y-110212000D02*
X156750000Y-109882000D01*
%TO.C,U10*%
X146204000Y-96973000D02*
X146204000Y-122493000D01*
X143714000Y-96913000D02*
X143714000Y-122553000D01*
X151504000Y-122493000D02*
X151504000Y-96973000D01*
X153994000Y-122553000D02*
X153994000Y-96913000D01*
X153994000Y-96913000D02*
X143714000Y-96913000D01*
X143714000Y-122553000D02*
X153994000Y-122553000D01*
X146204000Y-122493000D02*
X151504000Y-122493000D01*
X147854000Y-96973000D02*
X146204000Y-96973000D01*
X151504000Y-96973000D02*
X149854000Y-96973000D01*
X147854000Y-96973000D02*
G75*
G03*
X149854000Y-96973000I1000000J0D01*
G01*
%TO.C,U5*%
X109932000Y-96903000D02*
X109932000Y-114923000D01*
X114072000Y-96963000D02*
X112422000Y-96963000D01*
X117722000Y-114863000D02*
X117722000Y-96963000D01*
X117722000Y-96963000D02*
X116072000Y-96963000D01*
X120212000Y-96903000D02*
X109932000Y-96903000D01*
X109932000Y-114923000D02*
X120212000Y-114923000D01*
X112422000Y-114863000D02*
X117722000Y-114863000D01*
X120212000Y-114923000D02*
X120212000Y-96903000D01*
X112422000Y-96963000D02*
X112422000Y-114863000D01*
X114072000Y-96963000D02*
G75*
G03*
X116072000Y-96963000I1000000J0D01*
G01*
%TO.C,U6*%
X132538000Y-134481000D02*
X142818000Y-134481000D01*
X142818000Y-134481000D02*
X142818000Y-116461000D01*
X132538000Y-116461000D02*
X132538000Y-134481000D01*
X135028000Y-116521000D02*
X135028000Y-134421000D01*
X142818000Y-116461000D02*
X132538000Y-116461000D01*
X135028000Y-134421000D02*
X140328000Y-134421000D01*
X140328000Y-116521000D02*
X138678000Y-116521000D01*
X140328000Y-134421000D02*
X140328000Y-116521000D01*
X136678000Y-116521000D02*
X135028000Y-116521000D01*
X136678000Y-116521000D02*
G75*
G03*
X138678000Y-116521000I1000000J0D01*
G01*
%TO.C,C1*%
X108148000Y-134405000D02*
X108148000Y-134420000D01*
X103608000Y-132280000D02*
X108148000Y-132280000D01*
X103608000Y-134420000D02*
X108148000Y-134420000D01*
X108148000Y-132280000D02*
X108148000Y-132295000D01*
X103608000Y-132280000D02*
X103608000Y-132295000D01*
X103608000Y-134405000D02*
X103608000Y-134420000D01*
%TO.C,R1*%
X156750000Y-102716000D02*
X163290000Y-102716000D01*
X156750000Y-99976000D02*
X163290000Y-99976000D01*
X163290000Y-99976000D02*
X163290000Y-100306000D01*
X156750000Y-102386000D02*
X156750000Y-102716000D01*
X156750000Y-100306000D02*
X156750000Y-99976000D01*
X163290000Y-102716000D02*
X163290000Y-102386000D01*
%TO.C,R3*%
X156750000Y-106910000D02*
X156750000Y-106580000D01*
X163290000Y-106580000D02*
X163290000Y-106910000D01*
X156750000Y-109320000D02*
X163290000Y-109320000D01*
X163290000Y-109320000D02*
X163290000Y-108990000D01*
X156750000Y-106580000D02*
X163290000Y-106580000D01*
X156750000Y-108990000D02*
X156750000Y-109320000D01*
%TD*%
M02*
